<svg width="17" height="17" viewBox="0 0 17 17" fill="none" xmlns="http://www.w3.org/2000/svg">
<g id="Frame">
<g id="SVGRepo_iconCarrier">
<path id="Vector" d="M14.1663 7.08333V4.95833C14.1663 4.17593 13.5321 3.54167 12.7497 3.54167H4.24967C3.46727 3.54167 2.83301 4.17593 2.83301 4.95833V7.08333M14.1663 7.08333V13.4583C14.1663 14.2408 13.5321 14.875 12.7497 14.875H4.24967C3.46727 14.875 2.83301 14.2408 2.83301 13.4583V7.08333M14.1663 7.08333H2.83301M5.66634 2.125V4.95833M11.333 2.125V4.95833" stroke="#736A6A" stroke-width="1.41667" stroke-linecap="round"/>
<path id="Vector_2" d="M6.02083 8.5H4.60417C4.40857 8.5 4.25 8.65857 4.25 8.85417V10.2708C4.25 10.4664 4.40857 10.625 4.60417 10.625H6.02083C6.21643 10.625 6.375 10.4664 6.375 10.2708V8.85417C6.375 8.65857 6.21643 8.5 6.02083 8.5Z" fill="#736A6A"/>
<path id="Vector_3" d="M9.20833 8.5H7.79167C7.59607 8.5 7.4375 8.65857 7.4375 8.85417V10.2708C7.4375 10.4664 7.59607 10.625 7.79167 10.625H9.20833C9.40393 10.625 9.5625 10.4664 9.5625 10.2708V8.85417C9.5625 8.65857 9.40393 8.5 9.20833 8.5Z" fill="#736A6A"/>
<path id="Vector_4" d="M12.3958 8.5H10.9792C10.7836 8.5 10.625 8.65857 10.625 8.85417V10.2708C10.625 10.4664 10.7836 10.625 10.9792 10.625H12.3958C12.5914 10.625 12.75 10.4664 12.75 10.2708V8.85417C12.75 8.65857 12.5914 8.5 12.3958 8.5Z" fill="#736A6A"/>
</g>
</g>
</svg>
