<svg width="24" height="25" viewBox="0 0 24 25" fill="none" xmlns="http://www.w3.org/2000/svg">
<g id="Frame">
<g id="SVGRepo_iconCarrier">
<path id="Vector" d="M3.57564 1.5166C2.33917 1.95282 1.54173 2.7316 1.16748 3.83832C2.75092 4.90848 5.00068 7.11901 5.896 9.22018C6.25318 10.0583 6.5485 11.0055 6.73834 11.9917C6.98715 11.8525 8.31831 13.9031 7.93365 13.5459C7.84436 13.4631 6.87418 12.9528 6.89654 13.2867C6.9617 14.2603 6.99751 14.9873 6.83936 15.9248C6.42714 18.3689 4.16898 21.6524 4.16898 21.6524C5.21748 22.6416 5.85095 22.9568 7.67879 23.3296L11.2882 18.6231C12.6467 19.6951 11.5424 21.6231 12.6109 21.5514C13.6169 21.4838 12.7117 19.6185 13.4753 18.6524C14.2698 19.7117 15.1795 20.5864 16.087 21.3301C16.185 21.4297 16.1562 18.4484 16.3565 19.0991C16.5516 19.7329 16.9998 21.5394 17.2223 22.1577C17.8311 22.7808 18.2768 23.3023 19.024 23.4512C20.7546 23.7961 20.5968 23.3487 22.2715 22.4156C22.2715 22.4156 19.3644 18.9452 18.6871 16.8434C17.9922 14.6867 17.6858 12.2256 18.3355 10.0553C19.0756 7.58312 22.919 3.81652 22.919 3.81652C22.6957 3.5537 22.523 3.34815 22.3712 3.1749C22.2071 2.98773 20.7179 3.89902 20.5621 3.75793C20.4076 3.61787 21.5864 2.42401 21.3634 2.26965C21.1087 2.0934 20.7843 1.88837 20.3335 1.61045C18.8293 3.44091 17.5541 4.56896 15.0543 6.12807C14.865 5.02557 14.9725 4.38432 14.1475 3.59973C13.3225 2.81504 11.54 2.22455 9.9669 3.57188C9.27212 4.16701 9.41575 5.12663 9.05425 5.98745C7.89221 3.98073 4.82097 1.88851 3.57578 1.51679L3.57564 1.5166ZM12.8042 7.11076C12.9745 7.55054 12.8939 8.01441 12.7339 8.4526C12.574 8.89079 12.3227 9.32382 12.0484 9.73581C11.8785 9.99109 11.7 10.2346 11.5255 10.4668C12.0313 10.2905 12.5673 10.1276 13.0958 10.3452L13.5968 10.5518L13.2745 10.9869C13.0931 11.2313 12.9406 11.4464 12.8072 11.6431C12.976 11.5591 13.1548 11.484 13.3478 11.4292C13.5097 11.3833 13.7921 11.4781 13.8927 11.6167C13.9932 11.7553 14.0012 11.8613 14.0113 11.958C14.0315 12.1515 14.012 12.3393 13.9864 12.5528C13.9352 12.9796 13.8435 13.4841 13.8224 13.7745L12.98 13.7129C13.008 13.3275 13.1028 12.8338 13.1485 12.4531C13.1498 12.4429 13.1489 12.4412 13.15 12.4311C12.7358 12.6653 12.282 13.0264 11.7175 13.2631L10.5205 13.7656L11.1928 12.6552C11.4349 12.2559 11.6706 11.8186 12.0938 11.1919C11.952 11.2235 11.8049 11.2625 11.6558 11.3149C11.408 11.402 11.1615 11.5027 10.9482 11.5888C10.735 11.6749 10.579 11.7449 10.396 11.7836L9.41017 11.9931L9.95364 11.1435C10.2283 10.7143 10.8399 10.0296 11.3468 9.26846C11.6001 8.88784 11.8191 8.4976 11.9414 8.16249C12.0638 7.82734 12.0766 7.56765 12.0176 7.4153L12.8042 7.11062L12.8042 7.11076Z" fill="#323232"/>
</g>
</g>
</svg>
