<svg width="338" height="672" viewBox="0 0 338 672" fill="none" xmlns="http://www.w3.org/2000/svg">
<g clip-path="url(#clip0_430_897)">
<path d="M50.2637 633.093C46.0566 640.4 1.1072 662.986 0 671.622H67.9775L69.7492 639.515L50.2637 633.093Z" fill="#323232"/>
<path d="M211.739 633.093C215.946 640.4 260.896 662.986 262.003 671.622H194.026L192.254 639.515L211.739 633.093Z" fill="#323232"/>
<path d="M224.958 633.094C224.074 636.633 188.222 645.947 184.657 638.844C182.966 635.462 175.968 584.572 169.099 532.459C161.632 475.584 154.347 417.201 154.347 417.201L124.453 513.518C124.453 513.518 115.138 547.627 77.0489 645.947C55.3504 645.947 36.7477 629.998 35.4208 627.787C34.0939 625.575 56.0266 522.832 69.9721 470.355C77.0136 441.408 82.2791 412.057 85.7389 382.468C88.2106 363.189 89.7716 347.266 90.4741 339.799C90.6303 338.264 90.734 337.093 90.7861 336.312C90.8641 335.558 90.8903 335.168 90.8903 335.168L104.653 331.837L156.767 319.167H178.465C178.465 319.167 206.824 319.557 210.831 335.168C210.961 335.688 211.117 336.547 211.273 337.665C211.455 339.045 211.664 340.866 211.872 343.077C216.425 391.626 225.791 629.842 224.958 633.094Z" fill="#323232"/>
<g style="mix-blend-mode:overlay" opacity="0.25">
<path d="M211.872 343.077C204.535 348.489 193.53 344.326 166.081 343.025C128.642 341.256 132.857 346.355 93.362 349.009L90.7861 336.312C90.8641 335.558 90.8903 335.168 90.8903 335.168L104.653 331.837L156.767 319.167H178.465C178.465 319.167 206.824 319.557 210.831 335.168C210.961 335.688 211.117 336.547 211.273 337.665C211.455 339.045 211.664 340.866 211.872 343.077Z" fill="black"/>
</g>
<g style="mix-blend-mode:overlay" opacity="0.25">
<path d="M111.495 341.698C110.819 343.701 104.627 344.794 104.627 344.794C104.627 344.794 110.403 363.605 107.697 367.143C105.199 370.395 95.4165 384.575 85.7383 382.467C88.21 363.189 89.771 347.266 90.4734 339.799C88.1317 339.148 86.7269 337.978 86.5707 336.156C86.3316 332.288 86.4099 328.408 86.8048 324.552C86.9089 323.278 87.0389 321.951 87.1951 320.598C94.0117 324.318 94.8962 322.835 102.181 329.522C103.092 330.355 103.898 331.109 104.653 331.837C107.372 334.024 109.65 336.708 111.365 339.747C111.635 340.362 111.681 341.052 111.495 341.698Z" fill="black"/>
</g>
<path d="M169.176 468.794C168.343 493.302 168.603 515.755 169.098 532.459C161.63 475.584 154.346 417.201 154.346 417.201C154.346 417.201 167.406 372.685 169.176 373.57C170.945 374.48 170.893 417.877 169.176 468.794Z" fill="#454444"/>
<path d="M312.766 174.302C312.974 176.305 294.164 202.635 294.164 202.635C294.164 202.635 249.648 264.765 241.348 274.704C233.049 284.668 218.609 293.93 205.08 261.721C204.982 261.509 204.895 261.291 204.82 261.07C191.655 229.381 200.839 218.22 200.839 218.22L221.211 219.911L223.916 224.854L233.387 242.052C233.387 242.052 282.092 200.423 284.095 198.004C286.072 195.558 283.965 182.497 286.749 178.725C289.507 174.952 290.391 164.337 292.395 166.106C294.372 167.876 295.283 169.983 294.84 174.744C294.462 178.117 293.915 181.469 293.201 184.787C293.8 184.319 303.244 176.904 303.348 175.629C303.452 174.302 301.813 160.903 303.894 159.472C306.002 158.015 308.109 168.994 308.109 168.994C308.109 168.994 313.547 152.161 315.524 152.369C317.527 152.603 312.532 172.298 312.766 174.302Z" fill="#F4D7D7"/>
<path d="M223.916 224.854C212.547 234.896 206.823 250.195 204.82 261.07C191.655 229.381 200.839 218.219 200.839 218.219L221.211 219.91L223.916 224.854Z" fill="url(#paint0_linear_430_897)"/>
<path d="M216.528 224.828C207.969 230.135 201.828 234.376 201.828 234.376C201.828 234.376 202.531 240.126 203.572 248.894C204.04 252.796 204.56 257.297 205.132 262.163C205.549 265.883 206.017 269.786 206.459 273.819C206.954 278.164 207.448 282.638 207.942 287.114C208.359 291.042 208.775 294.945 209.165 298.743C209.66 303.375 210.102 307.876 210.492 312.038C211.715 325.281 212.392 335.324 211.793 336.833C211.66 337.134 211.485 337.414 211.273 337.665C207.786 341.542 192.176 339.591 166.288 336.156C151.042 334.153 128.563 337.926 111.365 339.747C111.261 339.747 111.131 339.773 111.027 339.773C109.024 339.955 107.124 340.137 105.277 340.267C103.82 340.397 102.415 340.475 101.089 340.527C97.5337 340.825 93.9543 340.579 90.4734 339.799C88.1317 339.149 86.7269 337.978 86.5707 336.156C86.3316 332.289 86.4099 328.408 86.8048 324.553C86.909 323.278 87.0389 321.951 87.1951 320.598C87.4552 317.84 87.7935 314.952 88.1317 312.038C88.6521 307.641 89.1203 303.14 89.3807 298.743C89.5365 295.986 89.6148 293.28 89.5627 290.652C89.5365 289.637 89.5107 288.44 89.4586 287.114C89.3545 283.575 89.1724 278.97 88.9903 273.819C88.8341 270.15 88.6783 266.222 88.4962 262.163C88.4179 260.211 88.3138 258.208 88.2359 256.231C88.1317 253.785 88.0279 251.313 87.9235 248.894C87.1431 231.956 86.4148 216.762 86.4148 216.762C86.4148 216.762 71.6366 242.493 70.3097 242.493C68.5145 242.129 66.7194 241.635 64.9501 241.089C54.1501 237.342 44.125 231.655 35.3681 224.307C32.2461 221.628 30.4509 219.572 30.6071 218.922C31.1016 216.762 40.4157 196.833 48.5591 180.546C56.6766 164.285 66.147 149.819 72.2869 145.396C76.7362 142.17 95.4686 134.521 105.381 130.566C109.128 129.083 112.432 127.912 112.432 127.912L122.111 130.228L158.874 125.05C158.874 125.05 163.27 125.831 167.329 126.768C176.097 128.745 190.484 132.309 193.971 134.885C199.071 138.657 213.12 173.755 228.08 217.933C223.995 220.249 220.041 222.642 216.528 224.828Z" fill="url(#paint1_linear_430_897)"/>
<path d="M100.282 199.109C99.9699 200.566 92.1385 235.872 88.2361 262.176C87.3775 242.559 86.415 222.707 86.415 222.707L100.282 199.109Z" fill="url(#paint2_linear_430_897)"/>
<g style="mix-blend-mode:overlay" opacity="0.25">
<path d="M210.492 312.038H88.1318C88.6522 307.641 89.1204 303.14 89.3808 298.743H209.165C209.66 303.375 210.102 307.876 210.492 312.038Z" fill="white"/>
</g>
<g style="mix-blend-mode:overlay" opacity="0.25">
<path d="M207.942 287.114H89.4585C89.3544 283.575 89.1723 278.97 88.9902 273.819H206.459C206.954 278.164 207.448 282.638 207.942 287.114Z" fill="white"/>
</g>
<g style="mix-blend-mode:overlay" opacity="0.25">
<path d="M205.133 262.162H88.4966C88.4183 260.211 88.3142 258.208 88.2362 256.231C88.1321 253.785 88.0283 251.313 87.9238 248.894H203.572C204.04 252.796 204.561 257.297 205.133 262.162Z" fill="white"/>
</g>
<path d="M167.33 126.768C165.899 139.568 159.889 152.603 141.338 153.254C114.54 154.216 107.307 138.996 105.382 130.566C109.128 129.083 112.428 127.911 112.428 127.911L122.111 130.228L158.868 125.047C158.868 125.047 163.271 125.831 167.33 126.768Z" fill="url(#paint3_linear_430_897)"/>
<path d="M110.377 342.141C108.551 341.937 106.801 341.294 105.278 340.267C103.088 338.95 101.024 337.435 99.1113 335.74L101.089 340.527L101.531 341.594C101.531 341.594 106.058 353.77 106.734 357.075C107.385 360.405 109.284 370.161 105.954 367.612C102.624 365.062 97.5503 343.702 97.5503 343.702C97.5503 343.702 98.0968 353.666 98.3048 357.075C98.5393 360.509 101.635 371.93 99.4237 372.685C93.9862 371.488 91.2282 346.902 91.2282 346.902C91.2282 346.902 91.1241 352.886 91.1241 356.97C91.1241 361.081 96.3275 375.365 91.1241 374.688C85.9207 374.038 84.6979 347.448 84.6979 347.448C84.2804 351.642 84.2456 355.866 84.5938 360.067C85.2441 364.516 88.6786 377.238 84.6979 376.796C80.7172 376.354 76.6062 342.036 76.06 338.498C75.5138 334.934 42.7315 310.685 27.0171 295.855C11.3023 281.025 14.3985 268.849 19.4978 255.554C22.6021 248.083 26.1467 240.803 30.1129 233.752C32.0643 230.083 33.9636 226.779 35.3684 224.307C44.1253 231.655 54.1504 237.342 64.9504 241.088L61.9325 246.084L47.0504 270.722L82.4862 323.538C82.4862 323.538 84.2817 323.928 86.8051 324.553C92.1071 325.603 97.2679 327.271 102.182 329.522C105.668 332.435 108.656 335.898 111.027 339.773C111.73 341.204 111.704 342.166 110.377 342.141Z" fill="#F4D7D7"/>
<path d="M64.9498 241.088L61.9318 246.084C50.6282 244.067 39.8226 239.879 30.1123 233.752C32.0637 230.083 33.963 226.779 35.3678 224.307C44.1247 231.655 54.1498 237.342 64.9498 241.088Z" fill="url(#paint4_linear_430_897)"/>
<path d="M47.5322 269.926C45.3638 269.816 43.1981 270.188 41.1912 271.017C39.1843 271.845 37.3863 273.108 35.9268 274.716" stroke="#C66D8C" stroke-width="1.30086" stroke-linecap="round" stroke-linejoin="round"/>
<path d="M233.383 242.056C229.566 247.44 226.511 253.327 224.305 259.548" stroke="#C66D8C" stroke-width="1.30086" stroke-linecap="round" stroke-linejoin="round"/>
<path d="M216.528 224.828C207.969 230.135 201.828 234.376 201.828 234.376C196.365 181.118 189.965 164.805 189.574 163.843C190.355 165.326 208.619 199.721 216.528 224.828Z" fill="url(#paint5_linear_430_897)"/>
<path d="M158.868 125.146C157.786 130.328 155.028 135.01 151.019 138.468C147.01 141.926 141.974 143.968 136.689 144.277C131.404 144.587 126.164 143.148 121.779 140.182C117.394 137.216 114.108 132.888 112.428 127.868L115.026 126.828L122.424 123.884C122.424 123.884 122.844 120.346 123.017 115.299C123.235 109.972 123.036 104.636 122.424 99.3403L151.495 103.967C150.579 107.588 150.163 111.317 150.258 115.051C150.266 118.351 150.464 121.647 150.852 124.923L155.677 125.047L158.868 125.146Z" fill="#F4D7D7"/>
<path d="M151.495 103.967C150.579 107.588 150.163 111.317 150.258 115.051C144.381 121.18 129.93 122.624 122.705 120.868C123.038 113.693 122.944 106.504 122.424 99.3403L151.495 103.967Z" fill="url(#paint6_linear_430_897)"/>
<path d="M177.078 45.2299C162.381 53.9142 135.858 61.3367 135.858 61.3367L120.098 71.4315L119.578 71.7533L110.102 74.7716H102.061C96.0492 62.1285 90.8532 50.9204 103.471 46.3435C102.908 45.4412 102.396 44.5077 101.938 43.5476C95.5296 30.6075 98.8942 15.3419 118.168 12.546C138.852 9.52777 160.18 5.1235 164.584 0.843179C169.013 -3.41228 170.918 9.52777 167.429 15.3913C176.757 9.70077 183.536 4.65354 186.084 11.7546C188.608 18.8553 191.75 36.5456 177.078 45.2299Z" fill="#30354A"/>
<path d="M161.646 45.8622C187.073 36.3775 184.704 14.4878 184.704 14.4878C184.704 14.4878 191.916 37.3859 169.648 48.389" fill="#242837"/>
<path d="M120.098 71.4314L119.578 71.7532L110.102 74.7715H102.061C96.0492 62.1284 90.8532 50.9204 103.471 46.3434C103.001 45.4526 102.605 44.5866 102.259 43.7454C100.823 40.4004 100.393 36.7094 101.021 33.1238C101.65 29.5382 103.309 26.2135 105.797 23.5562C105.476 24.4715 101.393 36.3722 106.811 45.898C107.094 46.0152 107.383 46.1144 107.678 46.1949C105.995 40.3062 106.119 30.4839 108.371 28.0837C108.494 34.6746 109.897 41.1786 112.502 47.234C112.997 47.2833 113.269 47.2833 113.269 47.2833L119.999 67.5962L120.098 71.4314Z" fill="#242837"/>
<path d="M103.471 46.3437C102.908 45.4414 102.396 44.508 101.938 43.5479C102.036 43.6218 102.16 43.6715 102.259 43.7457C102.605 44.5869 103.001 45.4529 103.471 46.3437Z" fill="#242837"/>
<path d="M177.078 66.0874C176.061 71.634 175.737 77.2853 176.113 82.9117C176.237 89.864 169.309 113.987 145.458 114.309C121.582 114.606 113.269 91.126 111.364 82.8126C110.603 84.4212 109.239 85.6655 107.568 86.2767C105.896 86.8879 104.052 86.8168 102.432 86.0788C96.2222 83.555 94.119 68.2894 102.012 65.8647C109.904 63.44 108.643 71.877 111.265 71.6543C112.354 71.5801 113.219 69.5266 113.863 66.8543C113.863 66.8295 113.863 66.8295 113.888 66.8049C114.722 63.1076 115.186 59.3364 115.273 55.5472C115.165 52.6863 114.483 49.8762 113.269 47.2835L113.715 47.3577C126.308 49.6588 154.538 44.9085 163.693 44.7103C168.161 44.4855 172.64 44.6595 177.078 45.23C177.078 45.23 177.128 45.8982 177.202 47.0114C177.802 53.3581 177.76 59.7491 177.078 66.0874Z" fill="#F4D7D7"/>
<path d="M105.29 73.8916C104.815 71.7928 100.785 72.4599 101.724 77.1854C102.664 81.9111 106.594 79.6567 105.29 73.8916Z" fill="url(#paint7_linear_430_897)"/>
<path d="M103.057 70.3936C106.11 73.0255 106.637 79.6059 104.583 81.6063" stroke="#C66D8C" stroke-width="1.2371" stroke-linecap="round" stroke-linejoin="round"/>
<path d="M155.172 68.6035C155.397 72.5748 155.96 76.5197 156.857 80.3951C156.857 80.3951 161.805 78.1844 161.91 83.5537C162.015 88.9231 154.119 86.8175 154.119 86.8175" stroke="#C66D8C" stroke-width="1.2371" stroke-linecap="round" stroke-linejoin="round"/>
<path d="M144.591 73.4921C144.591 75.9342 143.106 77.9141 141.275 77.9141C139.443 77.9141 137.958 75.9342 137.958 73.4921C137.958 71.0499 139.443 69.0703 141.275 69.0703C143.106 69.0703 144.591 71.0499 144.591 73.4921Z" fill="#30354A"/>
<path d="M171.807 72.0256C171.807 74.4677 170.322 76.4473 168.49 76.4473C166.659 76.4473 165.174 74.4677 165.174 72.0256C165.174 69.5834 166.659 67.6035 168.49 67.6035C170.322 67.6035 171.807 69.5834 171.807 72.0256Z" fill="#30354A"/>
<path d="M135.944 61.8529C137.24 60.7443 138.839 60.051 140.533 59.8632C142.228 59.6754 143.94 60.0019 145.446 60.8002" stroke="#30354A" stroke-width="2.19182" stroke-linecap="round" stroke-linejoin="round"/>
<path d="M173.292 61.5867C171.937 60.552 170.302 59.9489 168.599 59.8559C166.897 59.7629 165.206 60.1843 163.746 61.0653" stroke="#30354A" stroke-width="2.19182" stroke-linecap="round" stroke-linejoin="round"/>
<path d="M158.028 95.7031C157.915 96.4444 157.707 97.1679 157.409 97.8557C156.782 99.4325 155.739 100.809 154.39 101.839C154.184 102.025 153.961 102.191 153.722 102.334C151.855 103.607 149.566 104.104 147.339 103.719C145.941 103.484 144.618 102.926 143.476 102.088C142.333 101.25 141.402 100.157 140.757 98.8947C140.314 98.0664 140.005 97.1727 139.842 96.2473C139.722 95.7114 139.664 95.1635 139.669 94.6144C139.629 93.9858 139.662 93.3547 139.768 92.7339L158.028 95.7031Z" fill="#8B2968"/>
<path d="M153.722 102.334C151.855 103.607 149.566 104.104 147.339 103.719C145.472 103.396 143.751 102.505 142.409 101.168C141.068 99.8311 140.171 98.1128 139.842 96.2475C141.189 96.1686 142.542 96.2349 143.875 96.4453C145.872 96.551 147.812 97.1427 149.529 98.1689C151.245 99.1952 152.684 100.625 153.722 102.334Z" fill="#D63D80"/>
<path d="M177.201 47.0114C160.896 42.7808 126.901 55.572 119.899 53.2958C119.751 57.5513 116.609 59.1348 113.887 66.8049C114.721 63.1076 115.185 59.3364 115.273 55.5472C115.164 52.6863 114.483 49.8762 113.269 47.2835L113.714 47.3577C126.307 49.6588 154.538 44.9085 163.692 44.7103C168.16 44.4855 172.64 44.6595 177.077 45.23C177.077 45.23 177.127 45.8982 177.201 47.0114Z" fill="url(#paint8_linear_430_897)"/>
<path d="M158.868 125.146C157.786 130.328 155.028 135.01 151.019 138.468C147.01 141.926 141.974 143.968 136.689 144.277C131.404 144.587 126.164 143.148 121.779 140.182C117.394 137.216 114.108 132.888 112.428 127.868L115.026 126.828C119.108 134.597 122.226 142.168 139.842 140.412C143.94 140.344 147.859 138.718 150.801 135.864C153.742 133.009 155.486 129.141 155.677 125.047L158.868 125.146Z" fill="url(#paint9_linear_430_897)"/>
</g>
<g clip-path="url(#clip1_430_897)">
<path d="M337.801 74.243C338.314 80.0252 336.061 85.8522 333.923 91.6989C330.2 101.774 325.753 111.567 320.616 121C314.212 132.858 307.51 144.553 300.919 156.309C299.768 158.363 299.602 158.332 298.397 156.314C290.909 143.776 283.643 131.114 277.095 118.053C271.727 107.344 266.586 96.5192 262.871 85.1108C257.812 69.5746 263.252 52.7118 276.286 42.7496C292.875 30.0696 317.306 33.2962 329.944 49.8943C335.262 56.8782 338.062 64.7495 337.801 74.243ZM271.222 73.9472C271.158 89.5794 283.746 102.317 299.31 102.369C314.64 102.42 327.306 89.8395 327.537 74.6847C327.775 59.0419 315.202 45.9933 299.455 45.9217C283.991 45.8515 271.285 58.4843 271.222 73.9472Z" fill="url(#paint10_linear_430_897)"/>
<path d="M298.981 88.8841C290.777 89.1041 283.742 82.5109 283.489 74.3641C283.212 65.4482 289.628 58.685 298.581 58.4564C306.797 58.2467 313.679 64.9662 313.877 73.3927C314.073 81.7372 307.418 88.6579 298.981 88.8841Z" fill="#323232"/>
</g>
<defs>
<linearGradient id="paint0_linear_430_897" x1="226.252" y1="299.088" x2="175.767" y2="76.5561" gradientUnits="userSpaceOnUse">
<stop stop-color="#EEBDCA"/>
<stop offset="1" stop-color="#C66D8C"/>
</linearGradient>
<linearGradient id="paint1_linear_430_897" x1="131.082" y1="42.4529" x2="127.092" y2="445.347" gradientUnits="userSpaceOnUse">
<stop stop-color="#CAB4FB"/>
<stop offset="1" stop-color="#6E38EA"/>
</linearGradient>
<linearGradient id="paint2_linear_430_897" x1="113.595" y1="50.7198" x2="83.4819" y2="288.973" gradientUnits="userSpaceOnUse">
<stop stop-color="#CAB4FB"/>
<stop offset="1" stop-color="#6E38EA"/>
</linearGradient>
<linearGradient id="paint3_linear_430_897" x1="123.444" y1="6.3452" x2="148.795" y2="246.517" gradientUnits="userSpaceOnUse">
<stop stop-color="#CAB4FB"/>
<stop offset="1" stop-color="#6E38EA"/>
</linearGradient>
<linearGradient id="paint4_linear_430_897" x1="-63.5118" y1="294.199" x2="480.311" y2="8.1166" gradientUnits="userSpaceOnUse">
<stop stop-color="#EEBDCA"/>
<stop offset="1" stop-color="#C66D8C"/>
</linearGradient>
<linearGradient id="paint5_linear_430_897" x1="175.57" y1="64.3169" x2="216.091" y2="263.6" gradientUnits="userSpaceOnUse">
<stop stop-color="#CAB4FB"/>
<stop offset="1" stop-color="#6E38EA"/>
</linearGradient>
<linearGradient id="paint6_linear_430_897" x1="107.871" y1="168.948" x2="190.86" y2="-11.0575" gradientUnits="userSpaceOnUse">
<stop stop-color="#EEBDCA"/>
<stop offset="1" stop-color="#C66D8C"/>
</linearGradient>
<linearGradient id="paint7_linear_430_897" x1="128.036" y1="62.1649" x2="64.5479" y2="98.8047" gradientUnits="userSpaceOnUse">
<stop stop-color="#F4D7D7"/>
<stop offset="1" stop-color="#C66D8C"/>
</linearGradient>
<linearGradient id="paint8_linear_430_897" x1="149.565" y1="74.6019" x2="129.35" y2="-17.4171" gradientUnits="userSpaceOnUse">
<stop stop-color="#EEBDCA"/>
<stop offset="1" stop-color="#C66D8C"/>
</linearGradient>
<linearGradient id="paint9_linear_430_897" x1="123.698" y1="114.675" x2="201.398" y2="202.271" gradientUnits="userSpaceOnUse">
<stop stop-color="#EEBDCA"/>
<stop offset="1" stop-color="#C66D8C"/>
</linearGradient>
<linearGradient id="paint10_linear_430_897" x1="299.437" y1="35" x2="299.437" y2="157.839" gradientUnits="userSpaceOnUse">
<stop stop-color="#4A4848"/>
<stop offset="1" stop-color="#2E2121"/>
</linearGradient>
<clipPath id="clip0_430_897">
<rect width="316" height="671.622" fill="white"/>
</clipPath>
<clipPath id="clip1_430_897">
<rect width="76.875" height="138.891" fill="white" transform="translate(261 35)"/>
</clipPath>
</defs>
</svg>
