<svg width="24" height="25" viewBox="0 0 24 25" fill="none" xmlns="http://www.w3.org/2000/svg">
<g id="Frame">
<g id="SVGRepo_iconCarrier">
<g id="Page-1">
<g id="Dribbble-Light-Preview">
<g id="icons">
<path id="wifi-[#1029]" fill-rule="evenodd" clip-rule="evenodd" d="M9.43369 19.8043L10.7166 21.1659C11.4261 21.9189 12.5748 21.9189 13.2825 21.1659L14.5655 19.8043C13.1483 18.3001 10.8509 18.3001 9.43369 19.8043ZM4.3019 14.3577L6.86779 17.081C9.69681 14.0766 14.3024 14.0766 17.1332 17.081L19.6991 14.3577C15.4474 9.84346 8.55359 9.84346 4.3019 14.3577ZM23.4681 10.3558L22.265 11.6327C16.5961 5.61624 7.40493 5.61624 1.73419 11.6327L0.531106 10.3558C-0.238299 9.53922 -0.16029 8.18752 0.690774 7.46532C7.28879 1.87061 16.7122 1.87061 23.3102 7.46532C24.1613 8.18752 24.2375 9.53922 23.4681 10.3558Z" fill="#323232"/>
</g>
</g>
</g>
</g>
</g>
</svg>
